<?xml version="1.0" standalone="no"?>
<!DOCTYPE svg PUBLIC "-//W3C//DTD SVG 1.1//EN" "http://www.w3.org/Graphics/SVG/1.1/DTD/svg11.dtd">
<!--Generator: Xara Designer (www.xara.com), SVG filter version: 6.3.0.23-->
<svg fill="none" fill-rule="evenodd" stroke="black" stroke-width="0.501" stroke-linejoin="bevel" stroke-miterlimit="10" font-family="Times New Roman" font-size="16" style="font-variant-ligatures:none" xmlns:xlink="http://www.w3.org/1999/xlink" xmlns="http://www.w3.org/2000/svg" version="1.1" overflow="visible" width="83.792pt" height="83.792pt" viewBox="33.104 -116.896 83.792 83.792">
 <defs>
	</defs>
 <g id="Layer 1" transform="scale(1 -1)">
  <g id="ClipView" stroke="none">
   <path d="M 116.896,116.896 L 33.104,116.896 L 33.104,33.104 L 116.896,33.104 L 116.896,116.896"/>
   <clipPath id="ClipPath">
    <path d="M 116.896,116.896 L 33.104,116.896 L 33.104,33.104 L 116.896,33.104 L 116.896,116.896 Z"/>
   </clipPath>
   <g clip-path="url(#ClipPath)">
    <path d="M 33.94,83.929 L 62.068,105.143 C 62.819,105.705 63.851,105.705 64.602,105.143 L 69.228,101.66 L 73.851,105.143 C 74.598,105.705 75.63,105.705 76.378,105.143 L 80.893,101.744 L 85.401,105.143 C 86.149,105.705 87.181,105.705 87.932,105.143 L 116.063,83.929 C 116.589,83.527 116.896,82.91 116.896,82.251 L 116.896,46.538 C 116.896,45.376 115.959,44.426 114.797,44.426 L 103.246,44.426 L 91.464,44.426 L 58.53,44.426 L 46.979,44.426 L 35.2,44.426 C 34.048,44.426 33.104,45.376 33.104,46.538 L 33.104,82.251 C 33.104,82.91 33.417,83.527 33.94,83.929 Z M 37.306,48.637 L 44.883,48.637 L 44.883,82.251 C 44.883,82.91 45.193,83.527 45.719,83.929 L 65.735,99.022 L 63.335,100.834 L 37.306,81.203 L 37.306,48.637 Z M 56.427,48.637 L 56.427,82.251 C 56.427,82.91 56.74,83.527 57.263,83.929 L 77.396,99.11 L 75.114,100.834 L 49.085,81.203 L 49.085,48.637 L 56.427,48.637 Z M 83.224,48.637 L 89.371,48.637 L 90.106,48.637 L 90.106,63.874 L 83.224,63.874 L 83.224,48.637 Z M 79.016,48.637 L 79.016,65.973 C 79.016,67.139 79.956,68.076 81.121,68.076 L 92.208,68.076 C 93.364,68.076 94.304,67.139 94.304,65.973 L 94.304,48.637 L 101.144,48.637 L 112.691,48.637 L 112.691,81.203 L 86.665,100.834 L 60.632,81.203 L 60.632,48.637 L 79.016,48.637 Z" fill="#330066" stroke-width="0.3" fill-rule="evenodd" stroke-linejoin="miter" marker-start="none" marker-end="none"/>
   </g>
  </g>
 </g>
</svg>
