<?xml version="1.0" standalone="no"?>
<!DOCTYPE svg PUBLIC "-//W3C//DTD SVG 1.1//EN" "http://www.w3.org/Graphics/SVG/1.1/DTD/svg11.dtd">
<!--Generator: Xara Designer (www.xara.com), SVG filter version: 6.3.0.23-->
<svg fill="none" fill-rule="evenodd" stroke="black" stroke-width="0.501" stroke-linejoin="bevel" stroke-miterlimit="10" font-family="Times New Roman" font-size="16" style="font-variant-ligatures:none" xmlns:xlink="http://www.w3.org/1999/xlink" xmlns="http://www.w3.org/2000/svg" version="1.1" overflow="visible" width="117.54pt" height="117.54pt" viewBox="16.23 -133.77 117.54 117.54">
 <defs>
	</defs>
 <g id="Layer 1" transform="scale(1 -1)">
  <g id="ClipView" stroke="none">
   <path d="M 16.23,133.77 L 133.77,133.77 L 133.77,16.23 L 16.23,16.23 L 16.23,133.77"/>
   <clipPath id="ClipPath">
    <path d="M 16.23,133.77 L 133.77,133.77 L 133.77,16.23 L 16.23,16.23 L 16.23,133.77 Z"/>
   </clipPath>
   <g clip-path="url(#ClipPath)">
    <path d="M 119.425,119.719 L 30.606,119.719 C 22.674,119.719 16.23,113.283 16.23,105.352 L 16.23,44.644 C 16.23,36.717 22.674,30.272 30.606,30.272 L 119.398,30.272 C 127.321,30.272 133.77,36.717 133.77,44.644 L 133.77,105.323 C 133.797,113.257 127.345,119.719 119.425,119.719 Z M 127.226,44.644 C 127.226,40.344 123.722,36.844 119.425,36.844 L 30.606,36.844 C 26.302,36.844 22.802,40.344 22.802,44.644 L 22.802,105.323 C 22.802,109.634 26.302,113.138 30.606,113.138 L 119.398,113.138 C 123.698,113.138 127.202,109.634 127.202,105.323 L 127.202,44.644 L 127.226,44.644 Z" fill="#330066" stroke-width="0.247" fill-rule="evenodd" stroke-linejoin="miter" marker-start="none" marker-end="none"/>
    <path d="M 90.366,75.761 L 119.105,101.531 C 120.434,102.75 120.562,104.824 119.352,106.172 C 118.134,107.514 116.064,107.637 114.704,106.423 L 75.064,70.845 L 67.328,77.762 C 67.31,77.78 67.282,77.798 67.282,77.822 C 67.108,77.991 66.943,78.137 66.747,78.275 L 35.274,106.445 C 33.919,107.655 31.838,107.536 30.629,106.172 C 29.416,104.824 29.539,102.75 30.899,101.531 L 59.977,75.532 L 31.018,48.423 C 29.704,47.177 29.641,45.111 30.877,43.773 C 31.528,43.091 32.406,42.721 33.285,42.721 C 34.088,42.721 34.884,43.018 35.52,43.595 L 64.924,71.107 L 72.906,63.98 C 73.53,63.422 74.305,63.156 75.092,63.156 C 75.856,63.156 76.667,63.445 77.272,64.013 L 85.47,71.34 L 114.704,43.573 C 115.336,42.972 116.16,42.675 116.966,42.675 C 117.832,42.675 118.697,43.018 119.352,43.696 C 120.593,45.011 120.538,47.103 119.229,48.35 L 90.366,75.761 Z" fill="#330066" stroke-width="0.247" fill-rule="evenodd" stroke-linejoin="miter" marker-start="none" marker-end="none"/>
   </g>
  </g>
 </g>
</svg>
