<?xml version="1.0" standalone="no"?>
<!DOCTYPE svg PUBLIC "-//W3C//DTD SVG 1.1//EN" "http://www.w3.org/Graphics/SVG/1.1/DTD/svg11.dtd">
<!--Generator: Xara Designer (www.xara.com), SVG filter version: 6.3.0.23-->
<svg fill="none" fill-rule="evenodd" stroke="black" stroke-width="0.501" stroke-linejoin="bevel" stroke-miterlimit="10" font-family="Times New Roman" font-size="16" style="font-variant-ligatures:none" xmlns:xlink="http://www.w3.org/1999/xlink" xmlns="http://www.w3.org/2000/svg" version="1.1" overflow="visible" width="97.422pt" height="97.422pt" viewBox="26.289 -123.711 97.422 97.422">
 <defs>
	</defs>
 <g id="Layer 1" transform="scale(1 -1)">
  <g id="ClipView" stroke="none">
   <path d="M 26.289,123.711 L 123.711,123.711 L 123.711,26.289 L 26.289,26.289 L 26.289,123.711"/>
   <clipPath id="ClipPath">
    <path d="M 26.289,123.711 L 123.711,123.711 L 123.711,26.289 L 26.289,26.289 L 26.289,123.711 Z"/>
   </clipPath>
   <g clip-path="url(#ClipPath)">
    <path d="M 122.155,119.047 L 27.841,119.047 C 26.981,119.047 26.289,118.348 26.289,117.492 L 26.289,32.501 C 26.289,31.652 26.981,30.956 27.841,30.956 L 122.155,30.956 C 123.015,30.956 123.711,31.652 123.711,32.501 L 123.711,49.089 C 123.711,49.945 123.015,50.638 122.155,50.638 C 121.299,50.638 120.596,49.945 120.596,49.089 L 120.596,34.064 L 29.4,34.064 L 29.4,103.504 L 120.596,103.504 L 120.596,55.309 C 120.596,54.453 121.299,53.749 122.155,53.749 C 123.015,53.749 123.711,54.453 123.711,55.309 L 123.711,117.492 C 123.711,118.348 123.015,119.047 122.155,119.047 Z M 29.4,115.936 L 86.916,115.936 L 86.916,106.612 L 29.4,106.612 L 29.4,115.936 Z M 90.02,106.612 L 90.02,115.936 L 120.596,115.936 L 120.596,106.612 L 90.02,106.612 Z" fill="#330066" stroke-width="0.212" fill-rule="evenodd" stroke-linejoin="miter" marker-start="none" marker-end="none"/>
    <path d="M 105.369,112.936 C 104.457,112.936 103.698,112.188 103.698,111.272 C 103.698,110.357 104.457,109.62 105.369,109.62 C 106.281,109.62 107.018,110.357 107.018,111.272 C 107.018,112.188 106.281,112.936 105.369,112.936 Z" fill="#330066" stroke-width="0.212" fill-rule="evenodd" stroke-linejoin="miter" marker-start="none" marker-end="none"/>
    <path d="M 96.868,112.936 C 95.949,112.936 95.205,112.188 95.205,111.272 C 95.205,110.357 95.949,109.62 96.868,109.62 C 97.78,109.62 98.525,110.357 98.525,111.272 C 98.525,112.188 97.78,112.936 96.868,112.936 Z" fill="#330066" stroke-width="0.212" fill-rule="evenodd" stroke-linejoin="miter" marker-start="none" marker-end="none"/>
    <path d="M 113.863,112.936 C 112.947,112.936 112.206,112.188 112.206,111.272 C 112.206,110.357 112.947,109.62 113.863,109.62 C 114.778,109.62 115.519,110.357 115.519,111.272 C 115.519,112.188 114.778,112.936 113.863,112.936 Z" fill="#330066" stroke-width="0.212" fill-rule="evenodd" stroke-linejoin="miter" marker-start="none" marker-end="none"/>
    <path d="M 57.11,76.87 C 57.721,76.941 58.231,77.373 58.409,77.961 L 61.986,89.908 C 62.232,90.727 61.763,91.59 60.944,91.84 C 60.121,92.089 59.254,91.62 59.005,90.794 L 56.44,82.233 L 53.969,86.357 C 53.682,86.823 53.176,87.117 52.636,87.117 C 52.089,87.117 51.583,86.823 51.297,86.357 L 48.825,82.233 L 46.268,90.79 C 46.019,91.62 45.152,92.089 44.329,91.836 C 43.51,91.59 43.041,90.727 43.291,89.904 L 46.864,77.961 C 47.039,77.373 47.549,76.941 48.163,76.87 C 48.219,76.863 48.289,76.863 48.345,76.863 C 48.896,76.863 49.402,77.146 49.685,77.603 L 52.636,82.539 L 55.584,77.603 C 55.897,77.086 56.5,76.796 57.11,76.87 Z" fill="#330066" stroke-width="0.212" fill-rule="evenodd" stroke-linejoin="miter" marker-start="none" marker-end="none"/>
    <path d="M 69.054,76.87 C 69.121,76.863 69.188,76.863 69.259,76.863 C 69.791,76.863 70.308,77.146 70.591,77.603 L 73.535,82.539 L 76.494,77.603 C 76.803,77.086 77.406,76.796 78.013,76.87 C 78.631,76.941 79.133,77.373 79.304,77.961 L 82.889,89.908 C 83.13,90.731 82.669,91.594 81.846,91.84 C 81.024,92.089 80.157,91.628 79.911,90.794 L 77.335,82.233 L 74.875,86.357 C 74.589,86.83 74.082,87.117 73.535,87.117 C 72.992,87.117 72.486,86.83 72.203,86.357 L 69.731,82.233 L 67.171,90.794 C 66.921,91.62 66.062,92.089 65.228,91.84 C 64.398,91.59 63.948,90.727 64.197,89.908 L 67.766,77.961 C 67.945,77.373 68.447,76.941 69.054,76.87 Z" fill="#330066" stroke-width="0.212" fill-rule="evenodd" stroke-linejoin="miter" marker-start="none" marker-end="none"/>
    <path d="M 102.745,91.84 C 101.923,92.089 101.052,91.628 100.81,90.794 L 98.249,82.233 L 95.774,86.365 C 95.491,86.83 94.985,87.12 94.434,87.12 C 93.898,87.12 93.392,86.83 93.105,86.365 L 90.63,82.233 L 88.073,90.794 C 87.824,91.62 86.957,92.089 86.13,91.84 C 85.312,91.594 84.843,90.731 85.092,89.908 L 88.665,77.972 C 88.836,77.373 89.354,76.941 89.96,76.87 C 90.574,76.796 91.17,77.086 91.486,77.618 L 94.434,82.539 L 97.386,77.618 C 97.676,77.146 98.178,76.863 98.714,76.863 C 98.789,76.863 98.848,76.863 98.915,76.87 C 99.529,76.941 100.036,77.373 100.207,77.972 L 103.787,89.908 C 104.037,90.731 103.568,91.594 102.745,91.84 Z" fill="#330066" stroke-width="0.212" fill-rule="evenodd" stroke-linejoin="miter" marker-start="none" marker-end="none"/>
    <path d="M 54.624,68.045 C 54.624,68.901 53.928,69.605 53.068,69.605 L 44.776,69.605 C 43.92,69.605 43.22,68.901 43.22,68.045 L 43.22,59.757 C 43.22,58.893 43.92,58.197 44.776,58.197 L 53.068,58.197 C 53.928,58.197 54.624,58.893 54.624,59.757 L 54.624,68.045 Z M 51.512,61.312 L 46.331,61.312 L 46.331,66.497 L 51.512,66.497 L 51.512,61.312 Z" fill="#330066" stroke-width="0.212" fill-rule="evenodd" stroke-linejoin="miter" marker-start="none" marker-end="none"/>
    <path d="M 53.068,55.097 L 44.776,55.097 C 43.92,55.097 43.22,54.397 43.22,53.545 L 43.22,45.245 C 43.22,44.389 43.92,43.693 44.776,43.693 L 53.068,43.693 C 53.928,43.693 54.624,44.389 54.624,45.245 L 54.624,53.545 C 54.624,54.397 53.928,55.097 53.068,55.097 Z M 51.512,46.8 L 46.331,46.8 L 46.331,51.985 L 51.512,51.985 L 51.512,46.8 Z" fill="#330066" stroke-width="0.212" fill-rule="evenodd" stroke-linejoin="miter" marker-start="none" marker-end="none"/>
    <path d="M 102.306,65.455 L 96.079,65.455 C 95.219,65.455 94.52,64.766 94.52,63.895 C 94.52,63.043 95.219,62.34 96.079,62.34 L 102.306,62.34 C 103.155,62.34 103.851,63.043 103.851,63.895 C 103.851,64.766 103.155,65.455 102.306,65.455 Z" fill="#330066" stroke-width="0.212" fill-rule="evenodd" stroke-linejoin="miter" marker-start="none" marker-end="none"/>
    <path d="M 89.86,65.455 L 59.284,65.455 C 58.424,65.455 57.724,64.766 57.724,63.895 C 57.724,63.043 58.424,62.34 59.284,62.34 L 89.86,62.34 C 90.72,62.34 91.419,63.043 91.419,63.895 C 91.419,64.766 90.72,65.455 89.86,65.455 Z" fill="#330066" stroke-width="0.212" fill-rule="evenodd" stroke-linejoin="miter" marker-start="none" marker-end="none"/>
    <path d="M 102.306,50.939 L 96.079,50.939 C 95.219,50.939 94.52,50.247 94.52,49.395 C 94.52,48.535 95.219,47.835 96.079,47.835 L 102.306,47.835 C 103.155,47.835 103.851,48.535 103.851,49.395 C 103.851,50.247 103.155,50.939 102.306,50.939 Z" fill="#330066" stroke-width="0.212" fill-rule="evenodd" stroke-linejoin="miter" marker-start="none" marker-end="none"/>
    <path d="M 89.86,50.939 L 59.284,50.939 C 58.424,50.939 57.724,50.247 57.724,49.395 C 57.724,48.535 58.424,47.835 59.284,47.835 L 89.86,47.835 C 90.72,47.835 91.419,48.535 91.419,49.395 C 91.419,50.247 90.72,50.939 89.86,50.939 Z" fill="#330066" stroke-width="0.212" fill-rule="evenodd" stroke-linejoin="miter" marker-start="none" marker-end="none"/>
   </g>
  </g>
 </g>
</svg>
